<svg width="28" height="28" viewBox="0 0 28 28" fill="none" xmlns="http://www.w3.org/2000/svg">
<path d="M14.3687 11.7321H28V27.5215H22.1958V25.244C20.3052 27.0686 17.6331 27.9872 14.1796 28C10.1211 28 6.74319 26.6603 4.04591 23.9809C1.34864 21.3014 0 17.9777 0 14.0096C0 10.0287 1.34864 6.69856 4.04591 4.01914C6.74319 1.33971 10.1211 0 14.1796 0C17.4315 0 20.2863 0.893142 22.7441 2.67943C25.2145 4.45295 26.7711 6.71132 27.4139 9.45455H20.0216C18.7108 7.48963 16.7634 6.50718 14.1796 6.50718C12.0873 6.50718 10.3354 7.22169 8.9237 8.65072C7.52465 10.0797 6.82512 11.866 6.82512 14.0096C6.82512 16.1404 7.52465 17.9203 8.9237 19.3493C10.3354 20.7783 12.0873 21.4928 14.1796 21.4928C15.6039 21.4928 16.8832 21.1675 18.0176 20.5167C19.1519 19.8533 20.0027 18.9601 20.5699 17.8373H14.3687V11.7321Z" fill="#DB630C"/>
</svg>
