<svg width="114" height="22" viewBox="0 0 114 22" fill="none" xmlns="http://www.w3.org/2000/svg">
<path d="M14.2727 7.21875C14.1335 6.73485 13.938 6.30729 13.6861 5.93608C13.4342 5.55824 13.1259 5.24006 12.7614 4.98153C12.4034 4.71638 11.9924 4.5142 11.5284 4.375C11.071 4.2358 10.5639 4.16619 10.0071 4.16619C8.96638 4.16619 8.05161 4.42472 7.26278 4.94176C6.48059 5.45881 5.87074 6.21117 5.43324 7.19886C4.99574 8.17992 4.77699 9.37973 4.77699 10.7983C4.77699 12.2169 4.99242 13.4233 5.4233 14.4176C5.85417 15.4119 6.46402 16.1709 7.25284 16.6946C8.04167 17.2116 8.97301 17.4702 10.0469 17.4702C11.0213 17.4702 11.8532 17.2978 12.5426 16.9531C13.2386 16.6018 13.7689 16.108 14.1335 15.4716C14.5047 14.8352 14.6903 14.0829 14.6903 13.2145L15.5653 13.3438H10.3153V10.1023H18.8366V12.6676C18.8366 14.4574 18.4588 15.9953 17.7031 17.2812C16.9474 18.5606 15.9067 19.5483 14.581 20.2443C13.2552 20.9337 11.7372 21.2784 10.027 21.2784C8.1179 21.2784 6.44081 20.8575 4.99574 20.0156C3.55066 19.1671 2.42377 17.964 1.61506 16.4062C0.812974 14.8419 0.411932 12.9858 0.411932 10.8381C0.411932 9.1875 0.650568 7.71591 1.12784 6.42329C1.61174 5.12405 2.28788 4.02367 3.15625 3.12216C4.02462 2.22064 5.03551 1.53456 6.18892 1.06392C7.34233 0.593276 8.59186 0.357954 9.9375 0.357954C11.0909 0.357954 12.1648 0.526988 13.1591 0.865057C14.1534 1.1965 15.035 1.66714 15.804 2.27699C16.5795 2.88684 17.2126 3.61269 17.7031 4.45454C18.1937 5.28977 18.5085 6.21117 18.6477 7.21875H14.2727ZM20.0572 0.636363H24.8796L29.5231 9.40625H29.7219L34.3654 0.636363H39.1879L31.7603 13.8011V21H27.4847V13.8011L20.0572 0.636363ZM41.5394 0.636363H46.8491L52.457 14.3182H52.6957L58.3036 0.636363H63.6133V21H59.4371V7.74574H59.2681L53.9982 20.9006H51.1545L45.8846 7.69602H45.7156V21H41.5394V0.636363ZM73.641 21V0.636363H87.1239V4.18608H77.9464V9.03835H86.229V12.5881H77.9464V21H73.641ZM94.3253 0.636363V21H90.0199V0.636363H94.3253ZM97.092 4.18608V0.636363H113.816V4.18608H107.582V21H103.326V4.18608H97.092Z" fill="white"/>
</svg>
