<svg width="35" height="35" viewBox="0 0 35 35" fill="none" xmlns="http://www.w3.org/2000/svg">
<g clip-path="url(#clip0_413_27)">
<rect width="35" height="35" fill="white"/>
<path d="M20.6 8.4H25.08V28H21.72L14.16 17.36V28H9.68V8.4H13.04L20.6 19.04V8.4ZM32.0498 22.68C32.5351 23.9867 33.6551 24.64 35.4098 24.64C36.5485 24.64 37.4445 24.2853 38.0978 23.576L41.4578 25.508C40.0765 27.4307 38.0418 28.392 35.3538 28.392C33.0018 28.392 31.1165 27.692 29.6978 26.292C28.2978 24.892 27.5978 23.128 27.5978 21C27.5978 18.8907 28.2885 17.136 29.6698 15.736C31.0698 14.3173 32.8618 13.608 35.0458 13.608C37.0805 13.608 38.7698 14.3173 40.1138 15.736C41.4765 17.136 42.1578 18.8907 42.1578 21C42.1578 21.5973 42.1018 22.1573 41.9898 22.68H32.0498ZM31.9658 19.544H37.9858C37.5751 18.0693 36.5858 17.332 35.0178 17.332C33.3938 17.332 32.3765 18.0693 31.9658 19.544ZM52.3338 18.032H49.4498V22.988C49.4498 23.548 49.6738 23.9027 50.1218 24.052C50.5698 24.2013 51.3072 24.248 52.3338 24.192V28C49.6645 28.28 47.8165 28.028 46.7898 27.244C45.7632 26.4413 45.2498 25.0227 45.2498 22.988V18.032H43.0098V14H45.2498V11.34L49.4498 10.08V14H52.3338V18.032ZM63.0839 13.608C64.9319 13.608 66.5092 14.3267 67.8159 15.764C69.1225 17.1827 69.7759 18.928 69.7759 21C69.7759 23.072 69.1225 24.8267 67.8159 26.264C66.5092 27.6827 64.9319 28.392 63.0839 28.392C61.2919 28.392 59.9012 27.8227 58.9119 26.684V28H54.7119V8.4H58.9119V15.316C59.9012 14.1773 61.2919 13.608 63.0839 13.608ZM59.8359 23.492C60.4705 24.108 61.2732 24.416 62.2439 24.416C63.2145 24.416 64.0079 24.108 64.6239 23.492C65.2585 22.876 65.5759 22.0453 65.5759 21C65.5759 19.9547 65.2585 19.124 64.6239 18.508C64.0079 17.892 63.2145 17.584 62.2439 17.584C61.2732 17.584 60.4705 17.892 59.8359 18.508C59.2199 19.124 58.9119 19.9547 58.9119 21C58.9119 22.0453 59.2199 22.876 59.8359 23.492ZM76.0212 12.04C75.5359 12.5253 74.9479 12.768 74.2572 12.768C73.5665 12.768 72.9692 12.5253 72.4652 12.04C71.9799 11.536 71.7372 10.9387 71.7372 10.248C71.7372 9.55733 71.9799 8.96933 72.4652 8.484C72.9692 7.98 73.5665 7.728 74.2572 7.728C74.9479 7.728 75.5359 7.98 76.0212 8.484C76.5252 8.96933 76.7772 9.55733 76.7772 10.248C76.7772 10.9387 76.5252 11.536 76.0212 12.04ZM72.1572 28V14H76.3572V28H72.1572ZM84.6386 24.08H90.2106V28H79.0106V25.2L84.3026 17.92H79.2906V14H89.9306V16.8L84.6386 24.08ZM97.6543 24.08H103.226V28H92.0263V25.2L97.3183 17.92H92.3063V14H102.946V16.8L97.6543 24.08Z" fill="#313131"/>
<rect x="26" y="1" width="13" height="34" fill="white"/>
</g>
<defs>
<clipPath id="clip0_413_27">
<rect width="35" height="35" fill="white"/>
</clipPath>
</defs>
</svg>
