<svg width="120" height="27" viewBox="0 0 120 27" fill="none" xmlns="http://www.w3.org/2000/svg">
<path fill-rule="evenodd" clip-rule="evenodd" d="M80.3437 4.93C80.9197 5.4858 81.5917 5.7637 82.3597 5.7637C83.1527 5.7637 83.8247 5.4858 84.3767 4.93C84.9527 4.35 85.2407 3.6733 85.2407 2.9C85.2407 2.1266 84.9527 1.45 84.3767 0.87C83.8247 0.29 83.1527 0 82.3597 0C81.5917 0 80.9197 0.29 80.3437 0.87C79.7917 1.45 79.5157 2.1266 79.5157 2.9C79.5157 3.6733 79.7917 4.35 80.3437 4.93ZM80.0557 7.9387V26.0637H84.7007V7.9387H80.0557ZM14.5819 0.6887H19.5505V26.0637H15.77L4.9687 10.5487V26.0637H0V0.6887H3.7805L14.5819 16.1675V0.6887ZM27.9342 18.9225C28.5583 21.1941 30.2505 22.33 33.0108 22.33C34.7871 22.33 36.1312 21.7258 37.0434 20.5175L40.7878 22.6925C39.0116 25.2783 36.3953 26.5712 32.9388 26.5712C29.9625 26.5712 27.5742 25.665 25.7739 23.8525C23.9737 22.04 23.0736 19.7562 23.0736 17.0012C23.0736 14.2704 23.9617 11.9987 25.7379 10.1862C27.5142 8.3496 29.7944 7.4312 32.5788 7.4312C35.2191 7.4312 37.3914 8.3496 39.0956 10.1862C40.8238 12.0229 41.6879 14.2946 41.6879 17.0012C41.6879 17.6054 41.6279 18.2458 41.5079 18.9225H27.9342ZM27.8622 15.2975H37.0434C36.7793 14.065 36.2272 13.1466 35.3871 12.5425C34.571 11.9383 33.6349 11.6362 32.5788 11.6362C31.3306 11.6362 30.2985 11.9625 29.4824 12.615C28.6663 13.2433 28.1262 14.1375 27.8622 15.2975ZM50.6317 12.4337H54.7007V7.9387H50.6317V2.8637L45.9871 4.2775V7.9387H42.8547V12.4337H45.9871V19.9737C45.9871 22.4629 46.6352 24.1908 47.9314 25.1575C49.2517 26.1242 51.5077 26.4262 54.7007 26.0637V21.8225C53.8117 21.8708 53.0677 21.8829 52.4677 21.8587C51.8677 21.8104 51.4117 21.6412 51.0997 21.3512C50.7877 21.0612 50.6317 20.6021 50.6317 19.9737V12.4337ZM73.7017 12.905C75.9107 14.1858 77.0147 16.1191 77.0147 18.705C77.0147 20.8558 76.2587 22.62 74.7467 23.9975C73.2337 25.375 71.3737 26.0637 69.1657 26.0637H58.4727V0.6887H68.4097C70.5697 0.6887 72.3817 1.3654 73.8457 2.7187C75.3347 4.0479 76.0787 5.7516 76.0787 7.83C76.0787 9.9325 75.2867 11.6241 73.7017 12.905ZM68.4097 5.365H63.4407V10.9475H68.4097C69.1777 10.9475 69.8137 10.6816 70.3177 10.15C70.8457 9.6183 71.1097 8.9537 71.1097 8.1562C71.1097 7.3587 70.8577 6.6941 70.3537 6.1625C69.8497 5.6308 69.2017 5.365 68.4097 5.365ZM71.2537 20.5537C71.8057 19.9737 72.0817 19.2487 72.0817 18.3787C72.0817 17.5329 71.8057 16.8321 71.2537 16.2762C70.7017 15.6962 70.0057 15.4062 69.1657 15.4062H63.4407V21.3875H69.1657C70.0057 21.3875 70.7017 21.1096 71.2537 20.5537ZM94.6037 21.6775H102.598V26.0637H88.3757V22.9462L95.9727 12.325H88.7357V7.9387H102.237V11.0562L94.6037 21.6775ZM119.264 21.6775H111.271L118.904 11.0562V7.9387H105.402V12.325H112.639L105.042 22.9462V26.0637H119.264V21.6775Z" fill="white"/>
</svg>
